<svg xmlns="http://www.w3.org/2000/svg" width="512" height="160" viewBox="0 0 512 160"><defs><clipPath id="clip-path"><rect x="0" y="0" width="512" height="160" style="fill:none"/></clipPath></defs><title>Ankara Medipol Üniversitesi</title><g style="clip-path:url(#clip-path)"><path d="M61.3,1.1a5.19,5.19,0,0,1,0,7.3L45.9,23.8,30.5,8.4a5.16,5.16,0,0,1,7.3-7.3l8.1,8.1L54,1.1a5.19,5.19,0,0,1,7.3,0M2.7,59.7a5.19,5.19,0,0,0,7.3,0L25.4,44.3,10,28.9a5.16,5.16,0,1,0-7.3,7.3l8.1,8.1L2.7,52.4a5,5,0,0,0,0,7.3M30.4,87.5a5.19,5.19,0,0,1,0-7.3L45.8,64.8,61.2,80.2a5.16,5.16,0,0,1-7.3,7.3l-8.1-8.1-8.1,8.1a5.19,5.19,0,0,1-7.3,0M89,28.9a5.19,5.19,0,0,0-7.3,0L66.3,44.3,81.7,59.7A5.16,5.16,0,0,0,89,52.4l-8.1-8.1L89,36.2a5,5,0,0,0,0-7.3" style="fill:#262759"/></g><g style="clip-path:url(#clip-path)"><path d="M73.4,7.5a5.19,5.19,0,0,1,0,7.3L45.9,42.3,18.4,14.8a5.16,5.16,0,0,1,7.3-7.3L45.9,27.7,66.1,7.5a5.19,5.19,0,0,1,7.3,0M9.1,71.8a5.19,5.19,0,0,0,7.3,0L43.9,44.3,16.4,16.8a5.16,5.16,0,0,0-7.3,7.3L29.3,44.3,9.1,64.5a5.19,5.19,0,0,0,0,7.3M18.3,81a5.19,5.19,0,0,1,0-7.3L45.8,46.2,73.3,73.7A5.16,5.16,0,0,1,66,81L45.8,60.8,25.6,81a5.19,5.19,0,0,1-7.3,0M82.6,16.8a5.19,5.19,0,0,0-7.3,0L47.8,44.3,75.3,71.8a5.16,5.16,0,0,0,7.3-7.3L62.4,44.3,82.6,24.1a5.19,5.19,0,0,0,0-7.3" style="fill:#84878a"/></g><g style="clip-path:url(#clip-path)"><path d="M351,53.5l-.5-.1c-1.3,2.8-3.1,3.3-6.6,3.3h-3.4c-4.7,0-4.5-.4-4.5-8.1V28.7c0-5.9.6-8.1,3-8.7v-.6c-2.2.1-4.4.1-6.2.1s-4-.1-6.3-.1V20c2.6.6,3.2,2.9,3.2,8.7V52.3c0,5.7-.4,8.1-3.2,8.7v.5H350Zm-31.9-13c0,10.7-6.8,17.1-15.3,17.1-9.3,0-15.6-6.4-15.6-17,0-9.5,5.7-17,15.5-17s15.4,6.9,15.4,16.9m6.5,0c0-12.9-8.4-22.1-21.8-22.1s-22.1,9-22.1,22.1c0,12.2,8.3,22.1,22.2,22.1s21.7-9.7,21.7-22.1m-44.7-9.2c0-6.4-3.8-10.5-10.4-11.5a39.48,39.48,0,0,0-5.8-.4h-14V20c2.6.6,3.2,2.9,3.2,8.7V52.2c0,6.1-.6,8-3.2,8.6v.6c2-.1,4.1-.1,6.1-.1,1.6,0,3.9.1,6.5.1V61c-2.5-.3-3.2-2.4-3.2-8.6V24.7a17.67,17.67,0,0,1,4.5-.4c6.3,0,9.3,2.6,9.3,7.1,0,5.1-4.2,7.6-8.3,7.6a10.5,10.5,0,0,1-2.4-.3l-.5.1,1.6,5a15.56,15.56,0,0,0,2.5.3c7.7-.1,14.1-4.8,14.1-12.8M245,12.9a3.69,3.69,0,0,0-3.7-3.7,3.63,3.63,0,0,0-3.7,3.7,3.69,3.69,0,0,0,3.7,3.7,3.63,3.63,0,0,0,3.7-3.7m2.6,48.6V61c-2.5-.6-3.2-2.3-3.2-8.6V28.7c0-6,.6-8.1,3.2-8.7v-.6c-2.1.1-4.4.1-6.3.1s-4.2-.1-6.4-.1V20c2.6.6,3.2,2.8,3.2,8.7V52.3c0,6.2-.6,8-3.2,8.6v.6c2-.1,4.2-.1,6.5-.1,2.1,0,4.3.1,6.2.1M227.5,40.7c0,10.6-6.4,16-14.8,16-6.6,0-6.6-1.5-6.6-4.9V24.9a35.5,35.5,0,0,1,5.6-.6c9.5,0,15.8,6.2,15.8,16.4m6.5-.1c0-12.8-8-21.1-22.7-21.1H196.5v.6c2.6.6,3.2,2.9,3.2,8.7V52.3c0,6.1-.6,8-3.2,8.6v.6h15.2c14,0,22.3-7.9,22.3-20.9M192.4,53.3l-.6-.1c-.8,2.3-2.8,3.4-7.6,3.4h-3.9c-3.9,0-5.1,0-5.1-3.9v-11h7.6c4.5,0,6.6.9,7.1,3.2h.5c-.1-1.8-.1-3.7-.1-5.5s.1-4,.1-5.8h-.5c-.8,2.3-2.6,3.3-7.1,3.3h-7.6V24.3h7.3c5,0,7.2,0,8.6,3h.6V19.5H165.8V20c2.7.6,3.2,2.8,3.2,8.7V52.2c0,5.8-.4,8.1-3.2,8.7v.6h25.6Zm-28.3,8.2V61c-2.3-.9-2.8-2.2-3.9-6.7l-8.5-36.9H151L136,50.9,120.8,17.4h-.6l-8.1,36.7c-.9,4.3-1.3,6-3.9,6.9v.6c2-.1,4.5-.1,7.3-.1,1.3,0,2.7.1,3.9.1V61c-1.3-.4-2.1-1-2.1-2.1a19,19,0,0,1,.3-2.5l4.5-23.2,13.8,29.7h.6l13.1-29.7,4.9,24.2a10,10,0,0,1,.2,1.6c0,1.1-.8,1.8-2.1,2.1v.6c1.8-.1,3.7-.1,5.6-.1a37.8,37.8,0,0,1,5.9-.1" style="fill:#262759"/></g><g style="clip-path:url(#clip-path)"><path d="M486.1,102.8H473l6.7-16Zm15.4,16.6v-.6a6.5,6.5,0,0,1-3.7-3.9L480,75.3h-.9l-17,38.6c-1.3,3-2,4.7-4.1,5v.6c1.7-.1,3.4-.1,5.1-.1,2,0,4.1.1,6.3.1v-.6a1.77,1.77,0,0,1-1.6-1.9,7.22,7.22,0,0,1,.7-2.8l2.8-6.5H488l2.6,6.5a6,6,0,0,1,.6,2.3,2.1,2.1,0,0,1-1.8,2.4v.6c2.2-.1,4.7-.1,7.1-.1,1.5-.1,3.4,0,5,0m-44.4.2V119c-1.8-.4-2.6-1.5-4.4-4.1l-10-14.6c6.1-1.5,9.3-5.6,9.3-11.4,0-6.9-4.9-11.5-15-11.5H421.5V78c2.6.6,3.2,2.9,3.2,8.7v23.6c0,6.1-.6,8-3.2,8.6v.6c2.1-.1,4.3-.1,6.3-.1s4.3.1,6.4.1v-.6c-2.5-.6-3.2-2.5-3.2-8.6V82.4a23.35,23.35,0,0,1,4.9-.4c6.6,0,9.6,3.2,9.6,7.3,0,4.4-3.2,7.6-9.2,7.6a12.22,12.22,0,0,1-2.6-.3l-.3.4,12.1,18.6c2,3.1,3,4.2,6.6,4.2a34.57,34.57,0,0,0,5-.2m-52.5-16.8H391.5l6.7-16ZM420,119.4v-.6a6.5,6.5,0,0,1-3.7-3.9L398.6,75.3h-.9l-17,38.6c-1.3,3-2,4.7-4.1,5v.6c1.7-.1,3.4-.1,5.1-.1,2,0,4.1.1,6.3.1v-.6a1.77,1.77,0,0,1-1.6-1.9,7.22,7.22,0,0,1,.7-2.8l2.8-6.5h16.7l2.6,6.5a6,6,0,0,1,.6,2.3,2.1,2.1,0,0,1-1.8,2.4v.6c2.2-.1,4.7-.1,7.1-.1,1.4-.1,3.3,0,4.9,0m-43-.2v-.6c-3-1.2-5.4-3.6-8.8-7.3L353.9,96,366,84.6c4.1-3.9,6.8-6.1,9.7-6.7v-.6c-2.3.1-5.4.1-9.2.1-1.3,0-3-.1-4.4-.1v.6c.8.1,1.4.4,1.4,1.3s-.7,1.4-1.2,1.9L347.8,94.9V86.6c0-5.9.6-8.1,3.1-8.7v-.6c-2.1.1-4.3.1-6.3.1s-4.1-.1-6.3-.1v.6c2.6.6,3.2,2.9,3.2,8.7v23.6c0,6.1-.6,8-3.2,8.6v.6c2.2-.1,4.5-.1,6.4-.1s4.1.1,6.1.1v-.6c-2.4-.6-3.1-2.3-3.1-8.6V98.1l15.6,17c3,3.2,4.4,4.5,8.4,4.5a44.2,44.2,0,0,0,5.3-.4M336.3,77.9v-.6c-2.1,0-4.1.1-5.8.1s-4-.1-6.4-.1v.6c2.9.1,3.6,2.4,3.6,8.7V107L298.9,75h-.6v35.2c0,6.1-.6,8-3.2,8.6v.6c2-.1,4.1-.1,5.9-.1,2,0,4.2.1,6.4.1v-.6c-2.7-.3-3.5-2.3-3.5-8.6V89.6l28.8,31.8h.6V86.6c0-5.5.3-8.1,3-8.7m-58.1,24.9H265.1l6.7-16Zm15.4,16.6v-.6a6.5,6.5,0,0,1-3.7-3.9L272.2,75.3h-.9l-17,38.6c-1.3,3-2,4.7-4.1,5v.6c1.7-.1,3.4-.1,5.1-.1,2,0,4.1.1,6.3.1v-.6A1.77,1.77,0,0,1,260,117a7.22,7.22,0,0,1,.7-2.8l2.8-6.5H280l2.6,6.5a6,6,0,0,1,.6,2.3,2.1,2.1,0,0,1-1.8,2.4v.6c2.2-.1,4.7-.1,7.1-.1,1.6-.1,3.5,0,5.1,0m-45.5-17.8H234v4.6h14.1ZM235.8,77.9v-.6c-2.2.1-4.7.1-7.1.1-1.4,0-3-.1-4.4-.1v.6c1.1.2,1.6.8,1.6,1.7a6.71,6.71,0,0,1-.8,3.1l-11,26.3-9.8-23.7a16.63,16.63,0,0,1-1.6-5.1,2.23,2.23,0,0,1,1.9-2.4v-.6c-5.4.1-9.5.1-12.1,0v.6c1.8.5,2.4,1.5,4,5.1l17.1,38.4h.9L230.7,85c1.9-4.3,2.5-6.1,5.1-7.1m-44.9,0v-.6c-2.1,0-4.1.1-5.8.1s-4-.1-6.4-.1v.6c2.9.1,3.6,2.4,3.6,8.7V107L153.5,75h-.6v35.2c0,6.1-.6,8-3.2,8.6v.6c2-.1,4.1-.1,5.9-.1,2,0,4.2.1,6.4.1v-.6c-2.7-.3-3.5-2.3-3.5-8.6V89.6l28.8,31.8h.6V86.6c0-5.5.3-8.1,3-8.7m-44.3,0v-.6c-2.2.1-4.4.1-6.2.1-2,0-4.2-.1-6.4-.1v.6c2.5.6,3.2,2.7,3.2,8.7v16.3c0,3.3-.1,6.1-1.5,8.3-1.6,2.7-4.7,4.3-8.4,4.3-4.5,0-8-2.3-9.3-6a23.41,23.41,0,0,1-.8-7.2V86.6c0-5.9.6-8.1,3.2-8.7v-.6c-2.3.1-4.4.1-6.3.1s-4.2-.1-6.4-.1v.6c2.6.6,3.2,2.8,3.2,8.7V104c0,3.2.1,6.1,1.8,9.2,2.7,4.7,8,7.4,14.5,7.4,7.3,0,12.4-2.9,14.8-8,1.5-3.2,1.5-6.4,1.5-9.8V86.6c-.1-6,.5-8.1,3.1-8.7" style="fill:#84878a"/></g><g style="clip-path:url(#clip-path)"><path d="M505.6,131.8a1.7,1.7,0,0,0-3.4,0,1.7,1.7,0,0,0,3.4,0m1.1,21.6v-.3c-1.1-.3-1.4-1-1.4-3.8V138.8c0-2.7.3-3.6,1.4-3.9v-.3c-1,0-1.9.1-2.8.1a27.15,27.15,0,0,1-2.8-.1v.3c1.1.3,1.4,1.2,1.4,3.9v10.5c0,2.7-.3,3.6-1.4,3.8v.3c.9,0,1.8-.1,2.9-.1a23.48,23.48,0,0,1,2.7.1m-7.4-5.1c0-6.4-7.8-5.6-7.8-9.3a2.8,2.8,0,0,1,3-2.6,4.63,4.63,0,0,1,3.9,1.7h.3v-3.5h-.3c-.2.1-.3.2-.5.2a21.22,21.22,0,0,0-3.6-.6c-3.1,0-5.5,2.1-5.5,5a4.84,4.84,0,0,0,2.3,4.1c4.2,2.4,5.4,3.1,5.4,4.8a3.36,3.36,0,0,1-3.6,3.4,5.16,5.16,0,0,1-4.1-1.9h-.3l.3,3.4a11.5,11.5,0,0,0,4.1.8c3.8,0,6.4-2.2,6.4-5.5m-12.7,1.4h-.3c-.4,1-1.2,1.5-3.4,1.5h-1.7c-1.7,0-2.3,0-2.3-1.7v-5h3.4c2,0,2.9.4,3.2,1.4h.2c0-.8-.1-1.7-.1-2.4a22.6,22.6,0,0,1,.1-2.6h-.2c-.4,1-1.1,1.5-3.2,1.5H479v-5.5h3.2c2.2,0,3.2,0,3.8,1.3h.3v-3.5H474.8v.3c1.2.3,1.4,1.3,1.4,3.9v10.4c0,2.6-.2,3.6-1.4,3.9v.3h11.4Zm-13.2-11.6-.3-3.5H460.8l-.3,3.5h.3c.5-1,1.2-1.3,3-1.3h1.7v12.4c0,2.7-.3,3.6-1.4,3.8v.3c.9,0,1.9-.1,2.8-.1s1.9,0,2.9.1V153c-1.1-.3-1.5-1-1.5-3.8V136.8h1.8c1.8,0,2.5.3,3,1.3ZM458,131.8a1.61,1.61,0,0,0-1.7-1.6,1.6,1.6,0,1,0,0,3.2,1.61,1.61,0,0,0,1.7-1.6m1.2,21.6v-.3c-1.1-.3-1.4-1-1.4-3.8V138.8c0-2.7.3-3.6,1.4-3.9v-.3c-1,0-1.9.1-2.8.1a27.15,27.15,0,0,1-2.8-.1v.3c1.1.3,1.4,1.2,1.4,3.9v10.5c0,2.7-.3,3.6-1.4,3.8v.3c.9,0,1.8-.1,2.9-.1a23.48,23.48,0,0,1,2.7.1m-7.5-5.1c0-6.4-7.8-5.6-7.8-9.3a2.8,2.8,0,0,1,3-2.6,4.63,4.63,0,0,1,3.9,1.7h.3v-3.5h-.3c-.2.1-.3.2-.5.2a21.22,21.22,0,0,0-3.6-.6c-3.1,0-5.5,2.1-5.5,5a4.84,4.84,0,0,0,2.3,4.1c4.2,2.4,5.4,3.1,5.4,4.8a3.36,3.36,0,0,1-3.6,3.4,5.16,5.16,0,0,1-4.1-1.9h-.3l.3,3.4a11.5,11.5,0,0,0,4.1.8c3.9,0,6.4-2.2,6.4-5.5M440,153.4v-.3c-.8-.2-1.1-.7-1.9-1.8l-4.4-6.5a4.88,4.88,0,0,0,4.1-5.1c0-3.1-2.2-5.1-6.7-5.1h-6.9v.3c1.1.3,1.4,1.3,1.4,3.9v10.5c0,2.7-.3,3.6-1.4,3.8v.3c.9,0,1.9-.1,2.8-.1a26.2,26.2,0,0,1,2.8.1v-.3c-1.1-.3-1.4-1.1-1.4-3.8V136.9a9.38,9.38,0,0,1,2.2-.2c2.9,0,4.3,1.4,4.3,3.2s-1.4,3.4-4.1,3.4a3.75,3.75,0,0,1-1.1-.1l-.1.2,5.4,8.2c.9,1.4,1.3,1.8,2.9,1.8a6.46,6.46,0,0,0,2.1,0m-17.6-3.7h-.3c-.4,1-1.2,1.5-3.4,1.5H417c-1.7,0-2.3,0-2.3-1.7v-5h3.4c2,0,2.9.4,3.2,1.4h.2c0-.8-.1-1.7-.1-2.4a22.6,22.6,0,0,1,.1-2.6h-.2c-.4,1-1.1,1.5-3.2,1.5h-3.4v-5.5h3.2c2.2,0,3.2,0,3.8,1.3h.3v-3.5H410.5v.3c1.2.3,1.4,1.3,1.4,3.9v10.4c0,2.6-.2,3.6-1.4,3.9v.3H422Zm-12.5-14.8v-.3c-1,.1-2.1.1-3.1.1a12.1,12.1,0,0,1-1.9-.1v.3a.76.76,0,0,1,.7.8,4.88,4.88,0,0,1-.3,1.4l-5,11.7-4.4-10.5a8.51,8.51,0,0,1-.7-2.2,1.08,1.08,0,0,1,.8-1.1v-.3a45.27,45.27,0,0,1-5.3,0v.3c.8.2,1.1.7,1.8,2.3l7.6,17h.4l7.1-16.1c.8-2,1.1-2.8,2.3-3.3m-21.1-3.1a1.61,1.61,0,0,0-1.7-1.6,1.6,1.6,0,1,0,1.7,1.6m1.1,21.6v-.3c-1.1-.3-1.4-1-1.4-3.8V138.8c0-2.7.3-3.6,1.4-3.9v-.3c-1,0-1.9.1-2.8.1a27.15,27.15,0,0,1-2.8-.1v.3c1.1.3,1.4,1.2,1.4,3.9v10.5c0,2.7-.3,3.6-1.4,3.8v.3c.9,0,1.8-.1,2.9-.1a23.48,23.48,0,0,1,2.7.1m-7.6-18.5v-.3c-.9,0-1.8.1-2.6.1s-1.8-.1-2.9-.1v.3c1.3.1,1.6,1.1,1.6,3.9v9l-12.8-14.2h-.3v15.6c0,2.7-.3,3.6-1.4,3.8v.3c.9,0,1.8-.1,2.6-.1a26.2,26.2,0,0,1,2.8.1V153c-1.2-.1-1.5-1-1.5-3.8V140l12.8,14.1h.3V138.7c.1-2.3.2-3.5,1.4-3.8m-29.7-3.1a1.4,1.4,0,1,0-1.4,1.4,1.37,1.37,0,0,0,1.4-1.4m4.5,0a1.4,1.4,0,1,0-1.4,1.4,1.37,1.37,0,0,0,1.4-1.4m5,3.1v-.3c-1,0-1.9.1-2.7.1s-1.8,0-2.9-.1v.3c1.1.3,1.4,1.2,1.4,3.9V146a8.22,8.22,0,0,1-.6,3.7,4.17,4.17,0,0,1-3.7,1.9,4.08,4.08,0,0,1-4.1-2.7,9.92,9.92,0,0,1-.3-3.2v-6.9c0-2.6.3-3.6,1.4-3.9v-.3c-1,0-2,.1-2.8.1a27.15,27.15,0,0,1-2.8-.1v.3c1.1.3,1.4,1.2,1.4,3.9v7.7a7.55,7.55,0,0,0,.8,4.1,7.12,7.12,0,0,0,6.4,3.3c3.2,0,5.5-1.3,6.6-3.6a10.79,10.79,0,0,0,.7-4.3v-7.1c-.2-2.8.1-3.7,1.2-4m-23.6,14.9-.2-.1c-.6,1.3-1.4,1.5-2.9,1.5h-1.5c-2.1,0-2-.2-2-3.6v-8.8c0-2.6.3-3.6,1.3-3.9v-.3c-1,0-2,.1-2.7.1s-1.8,0-2.8-.1v.3c1.1.3,1.4,1.3,1.4,3.9v10.5c0,2.5-.2,3.6-1.4,3.9v.2h10.4ZM322.6,144c0,4.8-3,7.6-6.8,7.6-4.1,0-6.9-2.8-6.9-7.6,0-4.2,2.5-7.6,6.9-7.6s6.8,3.2,6.8,7.6m2.9,0c0-5.7-3.7-9.8-9.7-9.8s-9.8,4-9.8,9.8c0,5.4,3.7,9.8,9.8,9.8,6.3,0,9.7-4.3,9.7-9.8m-20.9-4.1c0-2.8-1.7-4.6-4.6-5.1a24.62,24.62,0,0,0-2.6-.2h-6.2v.3c1.1.3,1.4,1.3,1.4,3.9v10.4c0,2.7-.3,3.6-1.4,3.8v.3h5.6V153c-1.1-.1-1.4-1.1-1.4-3.8V137a9.49,9.49,0,0,1,2-.2c2.8,0,4.1,1.1,4.1,3.1a3.43,3.43,0,0,1-3.7,3.4,4.48,4.48,0,0,1-1.1-.1h-.2l.7,2.2c.3,0,.7.1,1.1.1,3.4.1,6.3-2,6.3-5.6m-16.5-8.1a1.61,1.61,0,0,0-1.7-1.6,1.52,1.52,0,0,0-1.6,1.6,1.64,1.64,0,0,0,1.6,1.6,1.73,1.73,0,0,0,1.7-1.6m1.2,21.6v-.3c-1.1-.3-1.4-1-1.4-3.8V138.8c0-2.7.3-3.6,1.4-3.9v-.3c-1,0-1.9.1-2.8.1a27.15,27.15,0,0,1-2.8-.1v.3c1.1.3,1.4,1.2,1.4,3.9v10.5c0,2.7-.3,3.6-1.4,3.8v.3c.9,0,1.8-.1,2.9-.1a25.28,25.28,0,0,1,2.7.1m-10.6-9.3c0,4.7-2.8,7.1-6.6,7.1-2.9,0-2.9-.6-2.9-2.2V137.1a21.3,21.3,0,0,1,2.5-.3c4.2,0,7,2.8,7,7.3m2.8,0c0-5.7-3.5-9.4-10.1-9.4h-6.5v.3c1.1.3,1.4,1.3,1.4,3.9v10.4c0,2.7-.3,3.6-1.4,3.8v.3h6.7c6.3,0,9.9-3.6,9.9-9.3m-18.4,5.6h-.3c-.4,1-1.2,1.5-3.4,1.5h-1.7c-1.7,0-2.3,0-2.3-1.7v-5h3.4c2,0,2.9.4,3.2,1.4h.2c0-.8-.1-1.7-.1-2.4a22.6,22.6,0,0,1,.1-2.6H262c-.4,1-1.1,1.5-3.2,1.5h-3.4v-5.5h3.2c2.2,0,3.2,0,3.8,1.3h.3v-3.5H251.2v.3c1.2.3,1.4,1.3,1.4,3.9v10.4c0,2.6-.2,3.6-1.4,3.9v.3h11.4Zm-12.6,3.7v-.3c-1-.4-1.3-1-1.7-3L245,133.8h-.3l-6.6,14.9-6.7-14.9h-.3l-3.6,16.3c-.4,1.9-.6,2.7-1.7,3.1v.3a31.12,31.12,0,0,1,3.2-.1,9.15,9.15,0,0,1,1.7.1v-.3c-.6-.2-1-.4-1-.9s.1-.8.1-1.1l2-10.3,6.1,13.2h.3l5.8-13.2,2.2,10.7c0,.2.1.6.1.7,0,.5-.4.8-.9.9v.3c.8,0,1.6-.1,2.5-.1a11.29,11.29,0,0,1,2.6,0M214.4,146h-5.8l3-7.1Zm6.8,7.4v-.3a3.49,3.49,0,0,1-1.7-1.7l-7.9-17.6h-.4l-7.6,17.1c-.6,1.3-.9,2.1-1.8,2.2v.3c.8,0,1.5-.1,2.2-.1a27.15,27.15,0,0,1,2.8.1v-.3a.76.76,0,0,1-.7-.8,2.38,2.38,0,0,1,.3-1.2l1.2-2.9H215l1.1,2.9a3.81,3.81,0,0,1,.3,1,1.08,1.08,0,0,1-.8,1.1v.3c1,0,2.1-.1,3.1-.1a10.42,10.42,0,0,1,2.5,0m-20.3,0v-.3c-.8-.2-1.1-.7-1.9-1.8l-4.4-6.5a4.88,4.88,0,0,0,4.1-5.1c0-3.1-2.2-5.1-6.7-5.1h-6.9v.3c1.1.3,1.4,1.3,1.4,3.9v10.5c0,2.7-.3,3.6-1.4,3.8v.3c.9,0,1.9-.1,2.8-.1a26.2,26.2,0,0,1,2.8.1v-.3c-1.1-.3-1.4-1.1-1.4-3.8V136.9a9.38,9.38,0,0,1,2.2-.2c2.9,0,4.3,1.4,4.3,3.2s-1.4,3.4-4.1,3.4a3.75,3.75,0,0,1-1.1-.1l-.1.2,5.4,8.2c.9,1.4,1.3,1.8,2.9,1.8a6.46,6.46,0,0,0,2.1,0M177.7,146h-5.8l3-7.1Zm6.8,7.4v-.3a3.49,3.49,0,0,1-1.7-1.7l-7.9-17.6h-.4l-7.6,17.1c-.6,1.3-.9,2.1-1.8,2.2v.3c.8,0,1.5-.1,2.2-.1a27.15,27.15,0,0,1,2.8.1v-.3a.76.76,0,0,1-.7-.8,2.38,2.38,0,0,1,.3-1.2l1.2-2.9h7.4l1.1,2.9a3.81,3.81,0,0,1,.3,1,1.08,1.08,0,0,1-.8,1.1v.3c1,0,2.1-.1,3.1-.1a10.42,10.42,0,0,1,2.5,0m-18.5-.2V153c-1.3-.5-2.4-1.6-3.9-3.2l-6.4-6.8,5.3-5.1c1.8-1.7,3-2.7,4.3-3v-.3c-1,0-2.4.1-4.1.1a14.08,14.08,0,0,1-2-.1v.3c.4.1.6.2.6.6s-.3.6-.5.8l-6.4,6.1v-3.7c0-2.6.3-3.6,1.4-3.9v-.3c-1,0-1.9.1-2.8.1s-1.8,0-2.8-.1v.3c1.1.3,1.4,1.3,1.4,3.9v10.5c0,2.7-.3,3.6-1.4,3.8v.3c1,0,2-.1,2.9-.1a24.37,24.37,0,0,1,2.7.1V153c-1.1-.3-1.4-1-1.4-3.8v-5.4l6.9,7.5c1.3,1.4,2,2,3.7,2a8.54,8.54,0,0,0,2.5-.1m-19.2-18.3v-.3c-.9,0-1.8.1-2.6.1s-1.8-.1-2.9-.1v.3c1.3.1,1.6,1.1,1.6,3.9v9l-12.8-14.2H130v15.6c0,2.7-.3,3.6-1.4,3.8v.3c.9,0,1.8-.1,2.6-.1a26.2,26.2,0,0,1,2.8.1V153c-1.2-.1-1.5-1-1.5-3.8V140l12.8,14.1h.3V138.7c-.1-2.3,0-3.5,1.2-3.8M121,146h-5.8l3-7.1Zm6.9,7.4v-.3a3.49,3.49,0,0,1-1.7-1.7l-7.9-17.6H118l-7.6,17.1c-.6,1.3-.9,2.1-1.8,2.2v.3c.8,0,1.5-.1,2.2-.1a27.15,27.15,0,0,1,2.8.1v-.3a.76.76,0,0,1-.7-.8,2.38,2.38,0,0,1,.3-1.2l1.2-2.9h7.4l1.1,2.9a3.81,3.81,0,0,1,.3,1,1.08,1.08,0,0,1-.8,1.1v.3c1,0,2.1-.1,3.1-.1a9.63,9.63,0,0,1,2.4,0" style="fill:#262759"/></g></svg>